<svg xmlns="http://www.w3.org/2000/svg" xmlns:xlink="http://www.w3.org/1999/xlink" style="isolation:isolate" viewBox="0 0 20 20" version="1.1" shape-rendering="crispEdges"><mask id="avatarsRadiusMask"><rect width="20" height="20" rx="10" ry="10" fill="#fff" x="0" y="0"/></mask><g mask="url(#avatarsRadiusMask)"><rect fill="#e8e8e8" width="20" height="20" x="0" y="0"/><path d="M3 20v-3h1v-1h4v-2H6v-1H5v-1H4v-1H3V9H2V7h1V4h1V3h1V2h10v1h1v1h1v3h1v2h-1v2h-1v1h-1v1h-1v1h-2v2h4v1h1v3H3z" fill="#CB9E6E"/><path d="M14 14v-1h1v-1h1v-1h1V9h1V7h-1V4h-1V3h-1V2H5v1H4v1H3v3H2v2h1v2h1v1h1v1h1v1h8z" fill="#FFF" fill-opacity=".1"/><path d="M5 7v1h3V7H5zm7 0h3v1h-3V7z" fill="#FFF"/><path d="M5 9V8h1V7h1v1h1v1H5zm7 0V8h1V7h1v1h1v1h-3z" fill="#588387"/><path d="M5 9V8h1V7h1v1h1v1H7V8H6v1H5zm7 0V8h1V7h1v1h1v1h-1V8h-1v1h-1z" fill="#FFF" fill-opacity=".5"/><path d="M6 5h2v1h1v1H8V6H6V5zm8 0h-2v1h-1v1h1V6h2V5z" fill-rule="evenodd" fill="#875739"/><path d="M9 12v1h2v-1h1v-1h-1v1H9z" fill="#e6b49e"/><path d="M3 20v-3h1v-1h3v1h1v1h1v1h2v-1h1v-1h1v-1h3v1h1v3H3z" fill="#ffc425"/><path d="M2 10h1V8h1V7h1V6h1V5h1V4h7v1h3V4h-1V3h-1V2H4v1H3v1H2v6z" fill="#a16743"/></g></svg>