<svg viewBox="0 0 280 280" fill="none" xmlns="http://www.w3.org/2000/svg"><mask id="avatarsRadiusMask"><rect width="280" height="280" rx="140" ry="140" fill="#fff" x="0" y="0"/></mask><g mask="url(#avatarsRadiusMask)"><rect fill="#ece4e4" width="280" height="280" x="0" y="0"/><g transform="translate(40, 36)"><path d="M100 0C69.072 0 44 25.072 44 56v6.166c-5.675.952-10 5.888-10 11.834v14c0 6.052 4.48 11.058 10.305 11.881 2.067 19.806 14.458 36.541 31.695 44.73V163h-4c-39.764 0-72 32.236-72 72v9h200v-9c0-39.764-32.236-72-72-72h-4v-18.389c17.237-8.189 29.628-24.924 31.695-44.73C161.52 99.058 166 94.052 166 88V74c0-5.946-4.325-10.882-10-11.834V56c0-30.928-25.072-56-56-56z" fill="#EDB98A"/><path d="M76 144.611v8A55.79 55.79 0 00100 158a55.789 55.789 0 0024-5.389v-8A55.789 55.789 0 01100 150a55.79 55.79 0 01-24-5.389z" fill="#000" fill-opacity=".1"/></g><g transform="translate(8, 170)"><path d="M132.5 54c18.502 0 33.5-9.626 33.5-21.5a14.08 14.08 0 00-.376-3.232C202.76 32.138 232 63.18 232 101.052V110H32v-8.948c0-38.217 29.775-69.48 67.393-71.855A14.108 14.108 0 0099 32.5C99 44.374 113.998 54 132.5 54z" fill="#B1E2FF"/><g transform="translate(77, 228)"><path fill-rule="evenodd" clip-rule="evenodd" d="M65.933 25.391c-4.082 1.38-8.55 3.324-10.905 7.074-1.847 2.942-1.971-.455-4.55.593-2.508 1.019-1.822 5.223-2.733 7.301-.708-1.191-1.043-2.516-1.935-3.604a6.607 6.607 0 001.814-1.724c.156-.32-4.792.348-5.076.43-1.411.401-2.74.77-4.088 1.429a78.83 78.83 0 001.965-2.989c.207-.68.576-.682 1.108-.006.748.036 1.178.357 1.962.177 2.915-.666 3.843-6.223.25-5.987a93.375 93.375 0 004.253-8.802c.502 4.291 6.08 2.813 7.719.525 2.14-2.989-.604-8.662-4.483-8.112.58-1.375 1.17-2.762 1.649-4.178 1.092 1.61 3.001 2.39 4.538 3.457a18.2 18.2 0 014.163 4.006c2.386 3.14 3.793 7.007 6.215 10.053a6.982 6.982 0 00-1.866.357zm9.006-4.388c-.632-5.758-5.15-11.601-9.44-15.176-2.55-2.125-10.24-7.385-13.306-3.34 2.472 1.071 5.2 1.33 7.65 2.489 3.32 1.572 5.922 4.16 8.168 7.055 3.138 4.045 7.97 12.283.474 14.386.518-.338.819-.709 1.228-1.308-1.007-.233-.6-1.878-.954-2.952-.412-1.25-1.21-2.467-1.884-3.582a56.617 56.617 0 00-3.504-5.171c-1.678-2.186-3.686-3.907-5.977-5.396-.907-.589-1.775-1.11-2.817-1.415-1.349-.394-.907.086-1.276-1.146-.232-.773-.024-1.763-.246-2.592-1.973 1.658-2.615 4.055-3.5 6.381-1.02 2.684-2.122 5.335-3.196 7.997-2.635 6.535-6.034 12.395-9.891 18.247-.672 1.02-2.165 2.95-1.09 4.174.96 1.095 2.33.306 3.386-.139 1.436-.604 3.385-2.164 4.935-1.347 1.998 1.054 1.054 4.984 4.214 4.827 3.114-.154 2.528-5.28 3.527-7.317 2.311 1.685 4.175.64 5.579-1.611 1.626-2.61 3.775-3.657 6.513-4.938 1.12-.524 3.034-1.94 4.2-2.115.966-.145 1.894.883 3.184.837 3.098-.113 4.392-4.253 4.023-6.848z" fill="#fff"/><path fill-rule="evenodd" clip-rule="evenodd" d="M53.537 23.834c-2.425-.445-5.807-.074-6.029 3.153-.136 1.978 1.41 3.848 3.082 4.664 5.122 2.5 9.109-6.688 2.947-7.817zm9.799-3.676c-.65-.706-1.703-1.24-2.675-.992.31-.215.568-.602.864-.84-3.156-2.286-5.14 3.479-3.346 5.748 2.718 3.44 8.037-.766 5.157-3.916z" fill="#fff"/></g></g><g transform="translate(86, 134)"><path fill-rule="evenodd" clip-rule="evenodd" d="M34.008 38.864C35.128 24.876 38.234 13.008 53.996 13c15.762-.008 18.92 11.943 19.998 25.994.087 1.13-.82 2.006-1.957 2.006-6.687 0-9.367-1.994-18.048-2-8.68-.006-13.232 2-17.896 2-1.144 0-2.197-.737-2.085-2.136z" fill="#000" fill-opacity=".7"/><path d="M67.024 17.573A4.982 4.982 0 0165 18H44a4.977 4.977 0 01-2.672-.773c2.897-2.66 6.95-4.224 12.668-4.227 5.95-.003 10.104 1.698 13.028 4.573z" fill="#fff"/><path d="M69.804 40.922c-2.05-.146-3.757-.477-5.547-.824C61.53 39.57 58.61 39.003 53.99 39c-5.013-.004-8.65.664-11.725 1.229-1.45.266-2.774.509-4.06.648C39.195 35.818 43.652 32 49 32c1.8 0 3.5.433 5 1.2 1.5-.767 3.2-1.2 5-1.2 5.365 0 9.832 3.84 10.804 8.922z" fill="#FF4F6D"/></g><g transform="translate(112, 122)"><path fill-rule="evenodd" clip-rule="evenodd" d="M16 8c0 4.418 5.373 8 12 8s12-3.582 12-8" fill="#000" fill-opacity=".16"/></g><g transform="translate(84, 90)"><path d="M26.998 16c-4.834 0-8.991 2.648-10.838 6.447-.54 1.111.387 1.853 1.277 1.125 2.437-1.993 5.82-3.228 9.56-3.228.082 0 .163 0 .244.002a6 6 0 1010.699 2.8 2 2 0 00-.125-.739 7.55 7.55 0 00-.144-.372 6.007 6.007 0 00-1.646-2.484C33.9 17.317 30.507 16 26.998 16zm58 0c-4.834 0-8.991 2.648-10.838 6.447-.54 1.111.387 1.853 1.278 1.125 2.436-1.993 5.82-3.228 9.56-3.228.08 0 .162 0 .243.002a6 6 0 1010.699 2.8 2 2 0 00-.125-.739 7.55 7.55 0 00-.144-.372 6.007 6.007 0 00-1.646-2.484C91.9 17.317 88.506 16 84.998 16z" fill="#000" fill-opacity=".6"/></g><g transform="translate(84, 82)"><path fill-rule="evenodd" clip-rule="evenodd" d="M36.37 6.876c-1.97 2.905-5.546 4.64-8.738 5.684-3.943 1.29-18.552 3.38-15.112 11.348a.147.147 0 00.272.002c1.153-2.645 17.465-5.123 18.973-5.704 4.445-1.709 8.393-5.49 9.162-10.543.352-2.317-.637-6.049-1.548-7.55-.11-.18-.374-.136-.43.069-.36 1.331-1.41 4.971-2.58 6.694zm39.26 0c1.97 2.905 5.546 4.64 8.738 5.684 3.943 1.29 18.551 3.379 15.112 11.348a.147.147 0 01-.272.002c-1.153-2.645-17.465-5.123-18.973-5.704-4.445-1.709-8.393-5.49-9.162-10.543-.352-2.317.637-6.049 1.548-7.55.11-.18.374-.136.43.069.36 1.331 1.41 4.971 2.58 6.694z" fill="#000" fill-opacity=".6"/></g><g transform="translate(7, 0)"><path fill-rule="evenodd" clip-rule="evenodd" d="M180.15 39.92c-2.76-2.82-5.964-5.213-9.081-7.613-.687-.53-1.386-1.046-2.058-1.595-.153-.125-1.719-1.246-1.906-1.659-.451-.993-.19-.22-.128-1.404.079-1.498 3.134-5.73.854-6.7-1.003-.427-2.791.709-3.753 1.084a59.558 59.558 0 01-5.731 1.9c.932-1.857 2.708-5.573-.631-4.579-2.602.775-5.026 2.768-7.64 3.705.865-1.418 4.324-5.811 1.198-6.057-.972-.076-3.803 1.748-4.85 2.138-3.137 1.165-6.341 1.92-9.634 2.513-11.198 2.018-24.293 1.442-34.653 6.54-7.987 3.93-15.874 10.029-20.489 17.794-4.447 7.486-6.11 15.677-7.041 24.254-.683 6.295-.739 12.802-.42 19.119.105 2.07.338 11.611 3.345 8.721 1.498-1.44 1.487-7.253 1.864-9.22.751-3.916 1.474-7.848 2.726-11.638 2.206-6.68 4.809-13.793 10.305-18.393 3.527-2.952 6.004-6.941 9.379-9.919 1.516-1.337.359-1.198 2.797-1.022 1.638.117 3.282.162 4.923.205 3.796.099 7.598.074 11.395.087 7.647.028 15.258.136 22.898-.265 3.395-.177 6.799-.274 10.185-.588 1.891-.175 5.247-1.387 6.804-.461 1.425.847 2.905 3.615 3.928 4.748 2.418 2.679 5.3 4.724 8.126 6.92 5.895 4.58 8.87 10.332 10.661 17.488 1.783 7.13 1.283 13.745 3.49 20.762.389 1.234 1.416 3.36 2.682 1.454.235-.354.175-2.3.175-3.42 0-4.52 1.144-7.91 1.13-12.46-.056-13.832-.504-31.868-10.85-42.439z" fill="#724133"/></g></g></svg>